Patient4_TMGait_0pt4_03_left_24_EMG.mot
version=1
nRows=36
nColumns=33
inDegrees=no
endheader
time	1LAddLong	2LGlutMax	3LGlutMed	4LIliopsoas	5LSemiMemb	6LBicFemLong	7LRecFem	8LVastMed	9LVastLat	10LGasMed	11LTibAnt	12lTibPost	13LPeroneusLong	14LSol	15LExtDigLong	16LFlexDigLong	17RAddLong	18RGlutMax	19RGlutMed	20RIliopsoas	21RSemiMemb	22RBicFemLong	23RRecFem	24RVastMed	25RVastLat	26RGasMed	27RTibAnt	28RTibPost	29RPeroneusLong	30RSol	31RExtDigLong	32RFlexDigLong
32.44	0.02594	0.077057	-0.40314	-0.005341	0.036774	-0.016785	-0.086975	0.000763	0.005798	0.022125	0.020599	0.016479	-0.15427	0.078278	-0.002899	0.013275	0.037842	-0.23987	-0.059204	-0.39032	-0.14358	-0.18066	-0.065765	0.16251	-0.54703	-0.007019	-0.00824	-0.002136	-0.15167	-0.008545	-0.002747	-0.013885
32.441	0.005188	0.036926	-0.36331	-0.002899	0.032654	0.000305	-0.067749	-0.004272	0.000763	0.005798	0.010223	0.013123	-0.080414	0.1503	-0.001526	-0.027618	0.092926	-0.25131	0.40024	-0.23483	-0.21698	-0.16205	-0.1236	0.098572	-0.37949	-0.015717	0.027466	-0.00351	-0.077667	-0.060883	-0.000458	-0.0177
32.442	0.005188	0.013275	-0.32303	0.003815	0.025482	-0.000458	-0.080109	0.00351	0.00061	0.042419	0.006256	0.015106	-0.041656	0.11917	0.004578	0.045624	0.1294	-0.19821	0.46997	0.090485	-0.1416	-0.18997	-0.20035	-0.11124	-0.24612	-0.018005	0.017242	0.003357	-0.025482	-0.057831	0.001526	-0.01236
32.443	0.006104	0.053101	-0.31479	0.007629	0.033112	0.004578	-0.079193	0.007629	-0.016632	0.16602	0.010681	0.012207	-0.048828	0.14282	-0.004578	0.055695	0.1564	-0.17471	0.86258	0.31677	-0.18585	-0.16586	-0.28366	-0.26977	-0.22644	-0.010681	-0.014496	0.002441	0.015259	-0.027313	-0.009155	-0.019836
32.444	0.006409	0.074158	-0.32166	0.005646	0.022278	0.011444	-0.096741	0.007935	-0.005493	0.28763	0.010986	0.015259	0.02655	0.087433	-0.019226	-0.13443	0.11368	-0.12558	0.92209	0.5719	-0.31998	-0.043793	-0.3656	-0.22964	-0.20218	-0.014954	0.006561	0.004883	-0.014954	-0.07431	-0.002747	-0.006409
32.445	0.018463	0.067291	-0.31006	0.001831	0.020905	0.021973	-0.068359	0.003967	-0.020599	0.28198	0.007019	0.014954	0.034332	-0.001831	-0.001678	0.13641	0.078125	-0.19943	0.62576	0.4744	-0.23392	-0.031891	-0.30319	-0.048523	-0.079041	-0.011902	-0.017853	0.003815	-0.02243	-0.068054	-0.001221	-0.009918
32.446	0.001373	0.066681	-0.28397	-0.000763	0.019226	0.031281	-0.075684	0.008087	-0.034485	0.24002	0.012817	0.016785	-0.037231	-0.041046	0.008698	0.21103	0.095367	-0.2684	0.5307	0.17853	-0.10483	-0.050201	-0.059662	0.048523	-0.1297	-0.015259	0.006104	0.000916	-0.25162	-0.059509	-0.00351	0.001526
32.447	-0.007629	0.098877	-0.30655	0.008392	0.019836	0.043945	-0.068817	0.004883	-0.02594	0.13382	0.013123	0.014954	-0.056458	-0.069122	-0.006409	-0.075378	0.053406	-0.2388	0.49072	-0.035553	-0.24872	-0.063171	-0.081024	-0.005035	0.066376	-0.010376	0.016785	0.005646	-0.34592	-0.06546	-0.002289	-0.00885
32.448	0.005798	0.077515	-0.24536	0.006256	0.011597	0.064545	-0.080566	0.009308	-0.027771	-0.018616	0.01358	0.023041	0.18005	-0.046844	0.021515	-0.15823	0.05722	-0.15991	0.30029	-0.024414	-0.71625	0.13001	-0.19562	-0.079498	0.24826	-0.007172	0.010834	0.000153	-0.23025	-0.061951	-0.001221	-0.001068
32.449	-0.002136	0.10925	-0.23483	0.001221	0.016174	0.071869	-0.08606	0.006561	-0.022583	-0.14557	0.007629	0.012512	0.1944	-0.043945	0.029602	-0.058594	0.13977	-0.20569	0.21606	0.092621	-0.31708	0.11063	-0.038757	-0.30685	0.19562	-0.008392	-0.003357	0.004272	0.27329	-0.05661	0.000458	-0.002747
32.45	0.012054	0.074005	-0.19638	-0.00351	0.009613	0.070343	-0.074005	0.003204	-0.022278	-0.049744	0.015411	0.016327	0.040588	-0.05661	0.000763	-0.023193	0.21835	-0.28793	0.11734	0.13473	-0.050354	0.070343	0.087128	-0.41946	0.14786	-0.005188	0.00824	0.003357	0.19073	-0.071411	0.000763	-0.000916
32.451	0.010223	0.058746	-0.19836	-0.002136	0.014801	0.071259	-0.074158	0.006714	-0.024109	0.26977	0.014496	0.015106	0.16083	-0.083313	-0.009003	-0.011139	0.19104	-0.27725	-0.070801	0.030518	0.07019	0.17319	-0.041504	-0.45502	0.18723	-0.00473	0.026398	0.005035	0.083771	-0.098877	-0.002747	-0.00061
32.452	0.002136	0.076294	-0.19409	0.014496	0.006104	0.051422	-0.063782	0.00351	-0.021362	0.056763	0.012054	0.019226	-0.17242	-0.12665	0.010223	0.011749	0.021973	-0.27298	-0.27222	-0.050964	0.063324	0.16556	-0.13519	-0.1973	0.26672	-0.007477	0.027161	0.003052	0.099335	-0.10193	0.002441	-0.013123
32.453	-0.010223	0.074005	-0.18936	0.018768	-0.006409	0.057678	-0.052338	0.003204	-0.014496	-0.015869	0.001373	0.029602	0.074005	-0.14893	0.023041	-0.001526	-0.16663	-0.32105	-0.32715	-0.082397	-0.061035	0.30197	-0.21744	0.19974	0.28961	-0.006866	0.044861	0.003357	0.089569	-0.071259	-0.001678	-0.015869
32.454	-0.00351	0.091553	-0.1831	0.011597	0.003815	0.010529	-0.084381	-0.006561	-0.000305	0.068359	-0.002136	0.042572	0.40329	-0.10437	0.027618	0.013885	-0.25269	-0.28183	-0.31815	-0.077209	-0.1535	0.30716	-0.25299	0.56244	0.25299	-0.001678	0.061035	0.00351	0.069733	-0.056915	-0.001068	-0.024109
32.455	0.001373	0.09491	-0.15015	0.026703	0.019684	-0.026093	-0.068512	-0.002136	-0.001068	0.18875	0.014343	0.036011	0.30899	0.030365	0.033875	0.014801	-0.22476	-0.35858	-0.06897	-0.12741	0.25528	0.14374	-0.19898	0.68558	0.19394	0	0.069733	0.002899	-0.033875	-0.053101	-0.002441	-0.019684
32.456	0.023041	0.10559	-0.12451	0.004883	0.035248	-0.065613	-0.075989	-0.00061	-0.003204	-0.10407	0.002594	-0.037384	-0.049438	0.21149	0.008087	0.013733	-0.15778	-0.30258	0.47562	-0.069122	0.30441	-0.033875	-0.19104	0.56824	0.13596	-0.005493	0.045319	-0.003815	-0.16647	-0.046692	0.002747	-0.014496
32.457	0.011749	0.06073	-0.12482	-0.008392	0.039825	-0.090027	-0.067749	0.001221	0.01709	-0.20538	0.029449	-0.02182	-0.44235	0.28137	-0.048523	0.007324	-0.1062	-0.289	0.29892	-0.14282	0.34347	-0.12711	-0.21225	0.36026	0.10986	0.000305	0.032654	0.002289	-0.15198	-0.050201	0.002594	-0.007019
32.458	0.006561	0.042725	-0.13901	0.010376	0.06012	-0.10223	-0.04837	0.001526	0.014496	-0.1857	0.007629	0.009308	-0.23529	0.1564	-0.10239	-0.016479	-0.061951	-0.19379	0.095062	-0.31738	0.21057	-0.10193	-0.12161	0.1535	0.065918	-0.005493	0.000153	0.003052	-0.08606	-0.054932	0.000763	-0.015869
32.459	-0.002136	0.066681	-0.094604	0.005646	0.037537	-0.12726	-0.044403	0.000458	0.011292	-0.21866	0.003357	0.012665	-0.077209	0.072632	-0.10788	-0.006409	0.004578	-0.11307	0.013275	-0.31189	-0.018005	-0.06485	0.029297	0.063782	0.050659	-0.006256	0.054321	0.002441	-0.13001	-0.062103	0.009155	-0.011292
32.46	0.005493	0.055695	-0.055389	-0.002899	0.03006	-0.11032	-0.055237	-0.004272	0.011444	-0.11505	0.016022	0.004578	0.066223	0.11643	0.041351	0.00351	0.10147	-0.036469	-0.33234	-0.12833	0.1149	-0.1648	0.10162	-0.089874	0.059662	-0.001984	0.095062	0.005493	-0.13748	-0.062714	0.005188	-0.008545
32.461	0.002747	0.066071	-0.076141	-0.003204	0.025635	-0.05188	-0.043182	-0.004425	0.004883	0.075378	0.014954	0.004425	0.01297	0.058136	0.052185	-0.009613	0.1503	0.015411	-0.52765	0.16129	0.3865	-0.18234	-0.033875	-0.28748	0.10819	-0.000916	0.068054	-0.002594	-0.0737	-0.044098	0.003357	-0.007782
32.462	-0.007172	0.068359	-0.093842	-0.020752	0.028381	-0.038757	-0.041962	-0.003967	0.005951	0.23041	0.016632	0.002747	-0.009766	-0.13229	0.009308	-0.000916	0.14069	0.11292	-0.22568	0.26062	0.36346	-0.2092	-0.12604	-0.3447	0.1831	-0.000763	0.080719	0.002594	-0.052643	-0.036926	0	-0.011902
32.463	0.006561	0.079956	-0.089111	-0.01709	0.021362	-0.012054	-0.043793	-0.002441	-0.009613	0.69672	0.006409	-0.004425	0.092316	-0.26123	-0.042877	0.008087	0.10956	0.19058	0.056152	0.21515	0.19531	-0.074158	-0.11978	-0.23483	0.28503	-0.00824	0.035248	0.00061	0.010071	-0.074768	0.000153	0.001221
32.464	-0.004425	0.10559	-0.052032	-0.005188	0.009003	0.019379	-0.039673	0.007477	-0.021057	1.0855	0.001526	-0.01297	0.077209	-0.055389	0.004272	0.00885	-0.02533	0.21942	0.43152	0.11047	-0.35294	0.08316	-0.098114	-0.16007	0.29419	-0.00946	0.0354	0.000763	-0.007629	-0.081024	0.00412	-0.004272
32.465	-0.006104	0.06424	-0.087128	0.011902	0.000153	0.024261	-0.057678	0.005798	-0.018921	0.80276	0.01358	-0.009613	-0.24841	0.090179	0.026855	-0.005035	-0.084991	0.29602	0.038605	0.054016	-0.82428	0.12787	-0.009613	-0.002747	0.14252	-0.015259	-0.007324	-0.002136	0.032196	-0.055542	0.00412	-0.002441
32.466	-0.002289	0.041962	-0.081177	0.011597	-0.005493	0.013733	-0.041351	0.004272	-0.02533	0.049896	0.017395	-0.019684	-0.19547	0.052795	-0.027618	0.005646	-0.056458	0.31067	0.17288	0.002289	-0.22507	0.14435	-0.007629	0.065155	0.0177	-0.007324	-0.030823	0.001678	0.043182	-0.039673	0.002899	-0.006866
32.467	0.000763	0.049133	-0.08194	-0.006256	0.001831	-0.022736	-0.014038	0.002747	-0.033722	-0.54611	0.012512	-0.002136	0.003204	0.009766	-0.038452	-0.004272	-0.033417	0.31097	0.15076	-0.065613	0.47043	0.26718	-0.21286	0.19226	0.19089	-0.007477	-0.02533	-0.005188	0.001221	-0.04425	0.001526	-0.007629
32.468	0.000458	0.076752	-0.034332	0.003967	-0.007782	-0.010071	-0.018158	0.008392	-0.043793	-0.49377	0.016479	-0.001373	0.015564	-0.040588	-0.009918	-0.002747	-0.050659	0.38986	-0.12772	-0.065613	0.74738	0.35004	-0.36209	0.24674	0.49866	-0.010071	-0.005493	-0.003662	-0.060883	-0.065155	0.00473	-0.010986
32.469	0.002899	0.058594	-0.009003	0.015106	0.005493	-0.004425	-0.020599	0.001373	-0.041351	-0.69046	0.007935	0.005188	0.093079	-0.080566	-0.003204	-0.003204	-0.015259	0.30334	-0.34195	-0.087738	0.61249	0.28275	-0.17517	0.14191	0.55054	-0.009766	0.015717	-0.003052	-0.10834	-0.065002	0.00412	-0.017395
32.47	0.009766	0.056915	-0.040283	0.015259	0.040283	0.004272	0.019989	0.004578	-0.048523	-0.45075	0.013275	0.002594	0.062866	-0.088501	-0.003815	-0.007172	0.041504	0.23743	-0.33859	-0.032806	0.45975	0.086517	-0.028381	0.14084	0.27908	-0.005493	0.00824	-0.002594	-0.086212	-0.048828	-0.003662	-0.014343
32.471	-0.011902	0.085144	-0.013428	0.020142	0.04776	0.031738	0.01236	-0.001526	-0.032806	-0.12375	0.013275	0.031281	0.012512	-0.04837	0.001068	-0.008698	0.042877	0.20386	-0.027161	-0.016174	0.29999	-0.07843	-0.016785	0.11429	-0.11658	-0.001831	0.00061	-0.010071	-0.005341	-0.019531	0.005798	-0.016174
32.472	-0.004578	0.026703	0.004578	0.015869	0.024719	0.055389	0.013428	-0.002441	-0.020752	0.20111	0.009155	0.032959	-0.12955	0.03418	-0.00061	-0.005035	0.034332	0.2095	-0.056763	0.010529	0.27649	-0.16586	0.002136	0.1207	-0.26703	-0.00061	0.036621	0.000305	0.078125	-0.057068	0.010071	-0.016174
32.473	-0.002136	0.067902	0.00824	0.001526	0.011444	0.056763	0.021057	-0.001221	-0.018005	0.70801	0.01236	0.046692	-0.088806	-0.069733	-0.021667	-0.008392	0.000916	0.038605	-0.24277	0.03067	0.28015	-0.054016	-0.048523	0.038757	-0.32577	-0.005798	0.13977	-0.003204	0.06485	-0.050354	0.01236	-0.020599
32.474	0.008545	0.1265	0.051575	0.03067	0.010529	-0.011749	0.015106	0.002899	-0.00824	0.88425	0.010834	0.046692	0.018463	-0.17029	-0.002594	-0.001984	-0.051422	-0.001984	-0.28793	-0.011139	0.15182	0.1236	-0.15656	0.048828	-0.26932	-0.010376	0.16998	-0.002747	0.028839	-0.037842	0.009155	-0.014648
32.475	0.007782	0.15976	0.087891	0.006561	0.011139	-0.013275	0.010071	0.002441	-0.014038	0.52109	0.008087	0.043335	0.008545	-0.1294	0.021973	-0.004578	-0.12665	0.029755	-0.14435	-0.11383	0.50812	0.1535	-0.16586	0.057373	-0.26016	-0.009155	0.14358	-0.001831	-0.006866	-0.027466	0.00946	-0.013123
